<?xml version="1.0" standalone="no"?><!DOCTYPE svg PUBLIC "-//W3C//DTD SVG 1.1//EN" "http://www.w3.org/Graphics/SVG/1.1/DTD/svg11.dtd"><svg t="1707664709650" class="icon" viewBox="0 0 1024 1024" version="1.1" xmlns="http://www.w3.org/2000/svg" p-id="5402" xmlns:xlink="http://www.w3.org/1999/xlink" width="200" height="200"><path d="M725.333333 213.333333H298.666667a85.333333 85.333333 0 0 0-85.333334 85.333334v341.333333a42.666667 42.666667 0 1 1-85.333333 0V298.666667a170.666667 170.666667 0 0 1 170.666667-170.666667h426.666666a170.709333 170.709333 0 0 1 167.850667 139.733333v488.533334A170.709333 170.709333 0 0 1 725.333333 896H298.666667a170.538667 170.538667 0 0 1-144.469334-79.744l1.194667-0.682667a42.666667 42.666667 0 0 1 76.501333-37.034666c15.658667 19.584 39.765333 32.128 66.773334 32.128h426.666666a85.333333 85.333333 0 0 0 85.333334-85.333334V298.666667a85.333333 85.333333 0 0 0-85.333334-85.333334z m-213.333333 512a42.666667 42.666667 0 0 1-42.666667-42.666666v-128H341.333333a42.666667 42.666667 0 1 1 0-85.333334h128V341.333333a42.666667 42.666667 0 1 1 85.333334 0v128h128a42.666667 42.666667 0 1 1 0 85.333334h-128v128a42.666667 42.666667 0 0 1-42.666667 42.666666z" fill="#14101C" p-id="5403"></path></svg>