<?xml version="1.0" standalone="no"?><!DOCTYPE svg PUBLIC "-//W3C//DTD SVG 1.1//EN" "http://www.w3.org/Graphics/SVG/1.1/DTD/svg11.dtd"><svg t="1707665829911" class="icon" viewBox="0 0 1024 1024" version="1.1" xmlns="http://www.w3.org/2000/svg" p-id="1160" xmlns:xlink="http://www.w3.org/1999/xlink" width="200" height="200"><path d="M186.181818 558.545455h651.636364a139.636364 139.636364 0 0 1 0 279.272727H186.181818a139.636364 139.636364 0 0 1 0-279.272727z m0 93.090909a46.545455 46.545455 0 0 0 0 93.090909h651.636364a46.545455 46.545455 0 0 0 0-93.090909H186.181818z" fill="#FFBD06" p-id="1161"></path><path d="M186.181818 744.727273h651.636364a139.636364 139.636364 0 0 1 0 279.272727H186.181818a139.636364 139.636364 0 0 1 0-279.272727z m0 93.090909a46.545455 46.545455 0 0 0 0 93.090909h651.636364a46.545455 46.545455 0 0 0 0-93.090909H186.181818z" fill="#2CB18D" p-id="1162"></path><path d="M465.454545 69.818182v372.363636a46.545455 46.545455 0 1 0 93.09091 0v-372.363636a46.545455 46.545455 0 1 0-93.09091 0z" fill="#4D84DB" p-id="1163"></path><path d="M512 379.904l-178.548364-158.72a46.545455 46.545455 0 1 0-61.812363 69.585455l209.454545 186.181818a46.545455 46.545455 0 0 0 61.812364 0l209.454545-186.181818a46.545455 46.545455 0 1 0-61.812363-69.53891L512 379.904z" fill="#4D84DB" p-id="1164"></path></svg>