<?xml version="1.0" standalone="no"?><!DOCTYPE svg PUBLIC "-//W3C//DTD SVG 1.1//EN" "http://www.w3.org/Graphics/SVG/1.1/DTD/svg11.dtd"><svg t="1707666067697" class="icon" viewBox="0 0 1024 1024" version="1.1" xmlns="http://www.w3.org/2000/svg" p-id="8464" xmlns:xlink="http://www.w3.org/1999/xlink" width="200" height="200"><path d="M874.666667 149.333333v213.333334h-170.666667V149.333333h170.666667z" fill="#1F64C0" p-id="8465"></path><path d="M885.333333 373.333333h-192v-234.666666h192v234.666666z m-21.333333-21.333333v-192h-149.333333v192h149.333333zM341.333333 149.333333v213.333334H170.666667V149.333333h170.666666z" fill="#1F64C0" p-id="8466"></path><path d="M352 373.333333h-192v-234.666666h192v234.666666z m-21.333333-21.333333v-192h-149.333334v192h149.333334z" fill="#1F64C0" p-id="8467"></path><path d="M341.333333 362.666667v490.666666H170.666667V362.666667h170.666666z" fill="#F1F4F9" p-id="8468"></path><path d="M352 864h-192v-512h192v512z m-21.333333-21.333333v-469.333334h-149.333334v469.333334h149.333334zM608 149.333333v213.333334h-170.666667V149.333333h170.666667z" fill="#1F64C0" p-id="8469"></path><path d="M618.666667 373.333333h-192v-234.666666h192v234.666666z m-21.333334-21.333333v-192h-149.333333v192h149.333333z" fill="#1F64C0" p-id="8470"></path><path d="M608 362.666667v490.666666h-170.666667V362.666667h170.666667z" fill="#F1F4F9" p-id="8471"></path><path d="M564.266667 864a236.245333 236.245333 0 0 1-19.968-21.333333H448v-469.333334h149.333333v123.285334c6.869333-4.48 13.994667-8.618667 21.333334-12.373334V352h-192v512h137.6z" fill="#1F64C0" p-id="8472"></path><path d="M874.666667 512.298667V362.666667h-170.666667v96.96a233.706667 233.706667 0 0 1 170.666667 52.693333z" fill="#F1F4F9" p-id="8473"></path><path d="M885.333333 521.664V352h-192v108.842667a235.52 235.52 0 0 1 21.333334-1.92V373.333333h149.333333v130.666667c7.466667 5.461333 14.592 11.370667 21.333333 17.664z" fill="#1F64C0" p-id="8474"></path><path d="M904.469333 626.005333l-83.136-144-23.893333 41.408A192 192 0 1 0 917.333333 701.44h-64a128 128 0 1 1-88.384-121.749333l-26.752 46.336h166.272z" fill="#F24141" p-id="8475"></path></svg>